<svg xmlns="http://www.w3.org/2000/svg" viewBox="0 0 945.21 950.21"><defs><style>.cls-1{fill:#282828;}.cls-1,.cls-2{fill-rule:evenodd;}</style></defs><title>Asset 1</title><g id="Layer_2" data-name="Layer 2"><g id="master-artboard"><path class="cls-1" d="M279.14,66.84c-61,28.13-113,72.95-154.94,124.44A421.5,421.5,0,0,0,77,262.79,133,133,0,0,1,67.47,279a81.54,81.54,0,0,1-11,14.3c-8.1,8.58-14.78,11-19.54,4.77-2.39-2.86-2.87-6.68-2.87-11.44.48-4.77,2.39-10,4.77-15.74,6.68-14.3,15.74-27.65,23.84-41C106.56,156,169.49,93.54,244.82,52.06c4.29-2.38,9.06-4.76,13.35-7.15s9.06-4.76,13.35-7.62c6.19-3.34,12.39-7.16,19.07-10,6.67-2.38,13.35-4.29,20.5-4.29a53.65,53.65,0,0,0,15.73-3.81c5.24-1.91,11-4.29,16.21-5.72s11-2.39,16.21-3.34c5.24-.48,10,0,13.82,1.91,6.68,3.33,13.35,6.67,8.59,14.3-4.29,6.67-11.92,9.53-21.46,11.92A480.91,480.91,0,0,0,279.14,66.84Z"/><path class="cls-1" d="M362.1,941.2c-18.59-8.1-38.14-13.82-57.21-21-10-3.34-19.55-7.63-29.08-11.45-4.77-1.9-9.54-4.29-14.31-6.67a128.43,128.43,0,0,1-13.82-7.63c-21.45-12.39-42-27.17-61.5-42.91a502,502,0,0,1-54.83-51c-21.45-22.41-37.66-48.63-55.78-73.42-3.81-5.24-7.15-11-8.58-16.21-1.91-5.24-2.38-10,0-13.82,3.34-6.68,7.63-14.31,17.64-8.11a40.68,40.68,0,0,1,11,9.54c3.33,3.81,6.19,9.06,9.53,14.3A356.66,356.66,0,0,0,170,801.52c12.87,13.34,27.17,25.26,41.95,36.71,15.26,11,30.51,21.45,47.2,30a488.74,488.74,0,0,0,48.15,22.41c16.69,6.2,33.38,11.92,50.54,15.73a108.36,108.36,0,0,1,13.35,3.81c4.29,1.43,9.06,2.86,12.87,4.77,6.67,3.34,12.39,7.63,15.73,11.92,3.82,4.29,5.25,9.06,3.34,12.4s-6.2,5.24-13.35,5.72C382.12,946,373.06,944.54,362.1,941.2Z"/><path class="cls-1" d="M724,113.09a597.08,597.08,0,0,0-90.1-50.54c-37.19-15.73-77.24-28.6-118.71-31a27.64,27.64,0,0,1-6.2-.95C487,26.32,477.47,21.08,480.81,13c3.81-8.58,25.74-15.73,43.86-11.92,4.77,1,10,1.91,14.78,2.86l14.78,2.86L569,10.59c4.77.95,9.53,2.38,14.3,3.81l14.3,3.81,14.31,4.3C621.45,25.37,630.51,28.7,640,32A766.81,766.81,0,0,1,748.27,82.1a128.23,128.23,0,0,1,17.64,12.39c4.76,4.77,9.05,9.54,13.34,14.31a169.12,169.12,0,0,1,10.49,15.25,65.51,65.51,0,0,0,4.77,7.63c1.43,2.38,2.86,5.25,4.29,7.63,5.25,9.53,1.43,14.3-5.24,16.21-6.2,1.91-12.88,0-20.5-6.68C756.85,136,740.64,124.05,724,113.09Z"/><path class="cls-1" d="M920.37,502.12c1.43-18.6,4.77-24.79,13.35-25.27s11.92,5.24,11.45,23.36c-3.82,58.64-15.74,116.8-37.67,171.63C886.05,726.67,854.58,778.63,813.58,823c-3.33,3.34-6.67,7.15-10,10.49s-7.15,6.2-10.49,9.06a68,68,0,0,1-23.36,11.92c-6.2,1.9-12.39,1.9-13.35-2.39-1-5.24,1.91-11,9.54-17.64a131.74,131.74,0,0,0,11.92-11c30.51-28.13,56.73-61,78.66-95.83a543.89,543.89,0,0,0,28.61-54.83q2.85-7.14,5.72-14.3c1.9-4.77,3.81-9.53,5.24-14.3l4.77-14.3,4.29-14.78A475.8,475.8,0,0,0,920.37,502.12Z"/><path class="cls-1" d="M921.33,367.2c7.63,25.74,6.67,57.21,9.06,88.67,1,13.35-3.82,20.5-11.45,21-9.53.48-16.21-4.77-18.11-16.69A107.91,107.91,0,0,1,899.4,443c.47-26.22-4.29-52.92-11.92-77.71-8.11-27.18-16.21-53.87-27.65-80.09-2.39-5.25-4.77-11-6.68-16.21a68.09,68.09,0,0,1-3.81-15.74c-.48-4.76.47-8.1,4.76-10A14.27,14.27,0,0,1,867,245.15c4.29,2.38,9,7.15,13.35,12.39,3.33,3.82,5.72,8.59,8.1,13.35s4.77,9.54,6.2,14.78A390.17,390.17,0,0,1,921.33,367.2Z"/><path class="cls-1" d="M585.69,920.23c18.6-5.25,37.19-11.92,56.74-17.17a119.16,119.16,0,0,1,16.68-3.81c5.25-.48,10-1,14.31.48,10.49,2.86,8.1,14.3-6.68,21-26.7,11.45-53.39,23.36-82.48,28.13-13.34,2.39-25.26,1.91-31-3.34-4.3-3.81-10.49-8.1-3.34-13.82,6.2-5.25,13.82-10.49,26.22-10.49A48.9,48.9,0,0,1,585.69,920.23Z"/><path class="cls-1" d="M27.42,480.19v25.26c-.48,6.2-1,12.4-2.38,18.12a32.35,32.35,0,0,1-5.72,14.3c-6.2,8.11-11.92,4.77-14.78-10C1.2,505.93-.71,483.52.25,461.59c0-11,2.86-19.54,6.19-24.79s7.63-8.1,12.4-7.15q6.43,1.43,8.58,11.44c.95,3.34.95,7.15.95,11.92s0,9.54-.47,15.26a50.17,50.17,0,0,1-.48,11.92Z"/><path class="cls-2" d="M434,753.51c-12.7-3.11-20.19-15.35-15.29-25a17.52,17.52,0,0,1,3.19-4.45c2.93-2.46,9.28-4.31,17.86-5.2a66.38,66.38,0,0,0,13.66-2.72c14.45-5.18,27.58-19,31.82-33.58,1.39-4.73,1.57-7.89,1.88-32.24.37-28.81.92-34.31,4.75-47.62,4.68-16.27,14.74-33.7,37.14-64.36,21.91-30,30-43.69,35.72-60.27,4.51-13.1,5.66-20.48,5.65-36.22,0-22.29-3.69-37.37-14.15-58.12-7.27-14.44-21.94-31.61-37.3-43.68-22.62-17.77-51.16-28.74-75.93-29.17-38.15-.68-73.22,14.63-100.16,43.72C323.67,375.3,314,396.44,308.39,430c-2.74,16.35-4.5,22.38-7.73,26.41-2.72,3.39-5.73,4.73-10.65,4.73-6.47,0-10.6-2.6-13.64-8.59-1.73-3.44-2-5-2.32-13.64-.77-20.92,4.86-44.75,16-67.54,21.43-44,59.63-75.44,106.42-87.63,16.12-4.2,24.8-5.24,43.9-5.25,18,0,24.4.72,39,4.43a166.4,166.4,0,0,1,100.36,72.52c23.67,37.36,31.47,88,19.77,128.45-3.11,10.75-6.3,17.92-13.83,31.12-6.94,12.15-9.1,15.31-26.37,38.62-17.58,23.73-26,38.23-31,53.61-4.27,13.06-4.76,17.4-5.46,48.37-.35,15.68-1,30.36-1.36,32.62-1.08,6.17-4.74,16.12-8.43,22.89-12.51,23-37.55,39.48-64.23,42.29-8.57.9-11.46.92-14.78.11Zm-217-71a12.75,12.75,0,0,1-1.07-22c10.24-6.7,23.52,5.36,17.9,16.25-3,5.78-11.21,8.56-16.83,5.7ZM272.46,630c-2.83-.6-8.06-6.34-8.65-9.49-.87-4.6.21-8,3.65-11.4s6.8-4.52,11.4-3.66c3.74.71,8.85,5.84,9.56,9.62,1.73,9.22-6.51,16.92-16,14.93Zm48.18-56.74-19.41-19.16,10.13-10.17,10.12-10.17,19.31,19.32,19.31,19.32-10,10-10,10-19.4-19.16Zm59-53.91a12.39,12.39,0,0,1-5.29-16.65c5.78-11.81,23.71-7.21,23.52,6a12.34,12.34,0,0,1-18.23,10.62Zm56.56-52.27c-11.27-2.7-13.23-18.26-2.93-23.31a12.26,12.26,0,0,1,16.84,5.68c4.55,9.4-3.84,20-13.91,17.63Zm-104.83-9.39c-6.77-2.4-8.41-6-8.31-18.41.16-18.82,5.21-35.48,16.35-53.9,15.18-25.09,40.16-45.37,66.43-53.93,12.1-3.94,21.46-5,37.73-4.42,19,.72,30.51,3.56,45.89,11.37,11.4,5.79,18.12,10.84,28.59,21.51a127.28,127.28,0,0,1,31.77,53.5c4,13.66,5.65,29.7,3.65,35.7s-7.68,8.86-14.15,7.28c-7.22-1.75-10.07-6.74-14.73-25.67-7.73-31.49-13.07-41.53-30.12-56.59-16.27-14.38-30.55-20.54-49.91-21.54-30-1.54-57.11,11.2-76,35.7a113.67,113.67,0,0,0-13.71,24.37c-1.28,3.34-3.64,12.72-5.3,21.14s-3.35,16.09-3.79,17.25c-1.17,3.09-4.33,6.09-7,6.62-1.28.26-2.84.6-3.46.75a10.13,10.13,0,0,1-4-.73Zm306.25-74.09c-10.06-26.07-17.59-40.51-29.94-57.37-26.37-36-64.4-63.57-106.06-76.82-6.69-2.13-12.29-4-12.45-4.08s5.95-25.77,6.31-25.77c.11,0,6.53,2,14.26,4.53,66.94,21.59,122.17,73.57,148.08,139.38,3,7.52,5.25,13.81,5.07,14s-23.59,7.83-24.26,7.83c-.19,0-.64-.76-1-1.69Zm48-31.12c-29.17-73.71-91.48-132.6-165.3-156.24-7.92-2.53-15.13-4.89-16-5.23l-1.64-.62L506,177.44c1.84-7.12,3.48-13.07,3.65-13.23s8.17,2.22,17.78,5.31c83.29,26.7,152.11,91,184,172,3.54,9,6.6,16.72,6.8,17.2s-4.21,2.34-12.74,5.07c-7.2,2.3-13.24,4.18-13.43,4.18s-3.11-7-6.49-15.56Z"/></g></g></svg>