<svg xmlns="http://www.w3.org/2000/svg" viewBox="0 0 1190.88 979.59"><defs><style>.a,.b{fill-rule:evenodd;}.b{fill:#fff;}</style></defs><title>Asset 1</title><path class="a" d="M677.72.36c-5.37.27-15,1-21.49,1.45s-16.7,1.44-22.56,2.12-16.61,2-23.56,2.93S591.51,9.7,584.25,11s-17.52,3.25-22.57,4.52S547.6,18.6,542,20s-14.8,3.61-20.31,5.1-13.54,3.7-18.05,5-13.27,4-19.41,5.91-16.34,5.33-22.56,7.54-17.25,5.73-23.88,8.21-16.43,6.46-22.07,8.81-14,6-18.55,8.12-14,6.41-20.63,9.57-17.6,8.62-24.42,12.18-16.83,9-22.56,12.1-15,8.67-21.17,12.37-15.71,9.66-21.21,13.22S272,138.25,265.64,142.62s-16.2,11.69-22,16.21-14.22,10.87-18,14.17-10.92,9-15.3,12.64-11.78,9.93-16.3,13.81S177.59,215,167.2,225.36s-22.56,23-27.08,28-10.92,13-14.66,17.47-9.71,12-13.23,16.47-9,12-12.37,16.47-9.47,13.54-13.81,20-10.42,16.16-13.54,21.48-8.08,13.54-10.78,18.55-7.32,13.54-10.25,19.41-7.54,15.35-10.15,21.21-6.41,14.67-8.44,19.68-5.15,13.54-7,18.55-4.51,12.46-5.51,16.2-2.89,9.53-3.88,12.91-3,10.34-4.24,15.71-3,12.73-3.84,16.74-2.16,11.33-3,16.21-1.85,12-2.34,15.89S1.79,548,1.29,553.66s-1,16.39-1.22,23.83,0,18.64.27,26.18,1.22,17.42,1.9,23.24S4,641.31,4.81,646s2.35,12.9,3.48,18,3.2,13.54,4.51,18.51,3.88,13.22,5.64,18.55,4.92,13.94,7,19.13,5.74,13.54,8.13,18.82,6.41,13.23,9,18.06,6.59,11.82,9,15.88,6.82,10.93,9.75,15.3,7.76,11.2,10.83,15.08,8.71,11.19,12.59,15.93,13.86,15.26,22.17,23.56,19.18,18.51,24.41,22.89,13.54,10.78,18.06,14.39,11.78,8.58,15.3,11,10.33,6.81,15,9.74,13.18,8,18.82,11.11,15.84,8.44,22.57,11.78,16.2,7.63,20.89,9.66,11.56,4.83,15.3,6.32,11.15,4.19,16.48,6.13,14.85,5.06,21.16,7,16.39,4.87,22.57,6.45,16.16,4.07,22.57,5.51,16.79,3.57,22.93,4.51,16.74,2.89,23.56,3.84,18.95,2.48,27.08,3.29,18.95,1.72,24.14,2.08,20,.81,33,1c14.76,0,29.25,0,38.82-.36,8.44-.4,21.53-1.22,29.15-1.85s18.46-1.71,24.11-2.34,16.52-2.17,24.14-3.3,19.37-3.07,26.18-4.51,19-3.79,27.08-5.6S659,957.12,664,956s14.13-3.79,20.31-5.51,16.34-4.83,22.57-6.81,16.61-5.42,22.93-7.63,16.79-6,23.24-8.53,16.39-6.46,22.07-9,14.13-6,18.82-8.12,14.22-6.55,21.17-9.84,18.06-9,24.42-12.23,16.29-8.71,21.8-11.78,15-8.67,21.17-12.37,15.7-9.66,21.21-13.22,14.76-9.75,20.58-13.81,14.67-10.43,19.73-14.18,14.12-10.78,20.26-15.7,15.44-12.6,20.63-17,13.54-11.87,18.5-16.52,15.75-15.12,23.88-23.33,18.05-18.73,22.29-23.43,11-12.64,15.17-17.65,10.47-12.86,14-17.37,9-12,12.32-16.48,9.53-13.54,13.86-20,10.43-16.16,13.54-21.48,8.08-13.54,10.79-18.55,7.31-13.54,10.24-19.41,7.49-15.35,10.16-21.22,6.41-14.66,8.39-19.67,5.19-13.54,7-18.55,4.52-12.46,5.51-16.21,2.89-9.52,3.88-12.91,2.8-10.42,4.11-15.61,3.16-13.54,4.15-18.37,2.3-12.23,2.93-16.2,1.58-10.39,2.08-14.27,1.31-11.69,1.81-17.37,1-16.39,1.21-23.83,0-18.65-.27-26.18-1.21-17.42-1.89-23.25-1.58-13.09-2-16.15-1.54-9-2.4-13.27-2.48-11.87-3.74-17.07-3.61-13.76-5.19-19.09-4.74-14.48-6.91-20.31-5.68-14.58-7.81-19.41-6.13-13.54-9-18.86-7-13.32-9.39-17.33-7.22-11.87-10.88-17.38-9-13.54-12.36-17.65-9-11.51-12.82-16.2-13.9-15.26-22.16-23.56-19.23-18.51-24.42-22.88-13.54-10.79-18-14.4-11.74-8.58-15.31-11-10.29-6.82-15-9.75-13.18-8-18.82-11.11-16.11-8.57-23.24-12.05S952,46.85,947,44.73s-13.54-5.46-18.55-7.45S914,32,907.9,29.92s-16.2-5.23-22.56-7-16.07-4.52-22-5.91-15.39-3.62-20.9-4.79-15.3-3-21.8-4.11S804,5.46,798.05,4.65s-16.3-1.26-23.25-1.94S758.19,1.22,753,.86,731.11,0,715.68,0,683,0,677.72.36Z"/><path class="b" d="M825.13,27.08a30.38,30.38,0,0,0-6.73,2.48,33.51,33.51,0,0,0-6.14,4.52,29.65,29.65,0,0,0-5,7,20.87,20.87,0,0,0-2.3,9,20.92,20.92,0,0,0,.85,9,30.59,30.59,0,0,0,3.21,7,33.55,33.55,0,0,0,4.51,5.23,28.7,28.7,0,0,0,5.6,3.66A171.13,171.13,0,0,0,836.55,80c7.89,1.94,19.45,5.14,25.59,7.13s16.61,5.78,23.24,8.39,18,7.77,25.32,11.38,16.93,8.8,21.44,11.55,11.15,6.86,14.71,9.25,9.39,6.5,13,9,9.79,7.54,13.85,10.92,11.92,10.61,17.56,16.16,13.54,13.54,17.38,18.06,9.39,11.32,12.18,15,7,9.61,9.48,13.17,6.5,9.89,9,14.09a47.63,47.63,0,0,0,7.76,10.83,29.82,29.82,0,0,0,6,4,34.44,34.44,0,0,0,7.09,2.12,19.64,19.64,0,0,0,8.08,0,34.54,34.54,0,0,0,7.36-2.3,30.08,30.08,0,0,0,6.54-4.83,24.79,24.79,0,0,0,5.28-7.36,19.17,19.17,0,0,0,2.21-9.39,24.54,24.54,0,0,0-.72-8.53,47.91,47.91,0,0,0-4-8.53c-1.67-2.93-5.73-9.43-9-14.44s-9-13.54-13.09-18.55-9.79-12.6-13.13-16.48-9.25-10.47-13.18-14.62-11-11.1-15.62-15.39-11.32-10.16-14.71-13-9.88-7.95-14.44-11.38-12.73-9-18.06-12.77-14.21-9-19.4-12-14.72-8-21.22-11.19-15.34-7.31-19.68-9-11.28-4.51-15.3-6.14-12.14-4.6-17.64-6.22-14.36-4.52-19.73-6-13.27-3.48-17.64-4.52a112,112,0,0,0-11.2-2.07A26.6,26.6,0,0,0,825.13,27.08Z"/><path class="b" d="M613.76,64.54c-4.51.27-13.54,1-20.31,1.72s-17.78,2-24.41,3-16.21,2.52-21.22,3.47-13.85,2.8-19.68,4.11S513,80.38,507.52,81.87,493.71,85.71,489,87.15s-12.77,4-18.05,5.78-13.54,4.51-18.06,6.55-13.54,5.41-19.72,7.94-16.34,7-22.52,9.93-16.11,7.85-21.8,10.88-13.86,7.53-18.05,10.06-11.78,7-16.48,9.84-12.64,8.12-17.65,11.51-14.17,9.93-20.31,14.58-14.62,11.19-18.82,14.62-11.78,9.93-16.79,14.35-14.67,13.54-21.48,20.41S243.35,240.07,239,245.08s-10.88,12.19-14.08,16.2-8.44,10.65-11.74,15-8.35,11.38-11.24,15.57-7.17,10.52-9.48,14.13-5.73,9-7.67,12.37-5.55,9.48-7.94,13.81-6.64,12.32-9.3,17.69S161,363.42,159,367.93s-5.28,12.24-7.22,17.07-4.51,12.27-6.23,16.47-4,11.78-5.69,16.92-4.1,14.22-5.55,20-3.34,13.91-4.15,18.06S128,468,127.17,473s-2,13.9-2.66,19.73-1.49,16.15-1.85,23-.54,18.05-.32,26.45.77,18.77,1.27,24.42,1.57,14.93,2.39,20.62,2.43,14.81,3.56,20.27,2.8,13.09,3.75,16.79,2.89,10.74,4.51,15.61,3.84,12.1,5.28,16.16,4.25,11.47,6.23,16.48,7.09,16,11.24,24.41,10.11,19.55,13.22,24.74,8.08,13,11,17.33,8,11.55,11.33,15.89,8.44,10.87,11.46,14.44,9,10.38,13.54,15.16,11,11.42,14.53,14.76,9,8.31,12.05,11,8.26,7.08,11.47,9.7,9.48,7.4,13.85,10.65,12.55,9,18.06,12.68,14.8,9.39,20.31,12.55,15.16,8.31,21.48,11.46,14.9,7.23,19.09,9,12.06,5.1,17.38,7.18,13.95,5.28,19.14,7,15.21,4.87,22.57,7,17.73,4.83,23.56,6.14,15.48,3.34,21.48,4.51,15.62,2.62,21.44,3.43,15,1.9,20.31,2.44,13.94,1.17,19.14,1.49,18.36.58,29.29.58,24.42-.27,30-.63,15.61-1.13,22.25-1.8,17.46-2,24.1-2.94,16.16-2.52,21.17-3.47,13.9-2.8,19.72-4.11,15.12-3.56,20.63-5.05,13.81-3.84,18.5-5.28,12.78-4,18.06-5.78,13.22-4.52,18-6.41,11.69-4.51,15.57-6.18,10.52-4.52,14.71-6.28,13.55-6.27,20.59-9.75,18-9,24.41-12.81,15.35-8.76,20-11.65,13.27-8.39,19.1-12.32,14.84-10.25,20-14.08,12.69-9.66,16.75-12.91,10.43-8.53,14.13-11.74,11.24-10,16.7-15,14.08-13.54,19.13-18.91,11.87-12.77,15.12-16.47,8.53-9.93,11.74-13.81,8.44-10.65,11.73-15,8.35-11.38,11.24-15.57,7.18-10.56,9.48-14.13,5.73-9,7.67-12.37,5.37-9,7.68-13.22,6.4-12,9-17.69,6.82-14,9-18.51,5.28-12.23,7.22-17.06,4.74-12.28,6.23-16.47,4-11.92,5.6-17.06,4.1-14.22,5.55-20,3.34-13.91,4.15-18.06,2.17-11.46,3-16.47,2-13.9,2.66-19.73,1.49-16.15,1.85-23,.54-18.05.32-26.45-.77-18.77-1.27-24.42-1.58-14.93-2.39-20.62-2.44-14.81-3.56-20.27-2.85-13.09-3.75-16.79-2.89-10.74-4.51-15.61-3.84-12.14-5.28-16.16-4.25-11.47-6.28-16.48-7-16-11.19-24.41-10.11-19.55-13.22-24.74-8.08-13-11-17.33-8.17-11.64-11.6-16.2-8.57-11-11.42-14.4-9-10.11-13.27-14.89-10.92-11.42-14.48-14.76-9-8.31-12-11-8.26-7.08-11.51-9.7-9.44-7.4-13.81-10.65-12.6-9-18.06-12.73-14.8-9.34-20.31-12.5-15.16-8.31-21.48-11.46-14.9-7.23-19.14-9-12-5.1-17.33-7.18-14.4-5.28-19.5-7.08-15.26-4.88-22.57-7-17.46-4.83-23.33-6.14-15.48-3.34-21.49-4.52-15.61-2.61-21.48-3.43-14.94-1.89-20.26-2.39-14-1.17-19.14-1.49-19.23-.59-31.19-.54S617.92,64.27,613.76,64.54Z"/><path class="b" d="M1108.43,294.91a32.56,32.56,0,0,0-6.09,2.48,31.6,31.6,0,0,0-5.6,4.24,29.88,29.88,0,0,0-4.28,5.6,32.49,32.49,0,0,0-2.53,6.45,30.82,30.82,0,0,0-.9,6.19,35.87,35.87,0,0,0,1.13,7c.67,2.43,2.25,8.26,3.56,12.95s3.34,12.91,4.51,18.05a93.82,93.82,0,0,0,3.57,13,28.57,28.57,0,0,0,10.61,11.28,35.42,35.42,0,0,0,6.36,2.57,21.08,21.08,0,0,0,7.94.68,31.42,31.42,0,0,0,7.68-1.53,30,30,0,0,0,6.13-3.43,31,31,0,0,0,5.15-5.15,31.32,31.32,0,0,0,3.48-6.18,30.4,30.4,0,0,0,1.58-7.36,39.07,39.07,0,0,0-1-10.61c-.68-3.56-2.44-11.1-3.88-16.74s-3.48-13.54-4.52-17.06a77.2,77.2,0,0,0-3.56-9.89,26,26,0,0,0-4.52-5.86,29.12,29.12,0,0,0-5.73-4.52,34.66,34.66,0,0,0-6.45-2.52,28.7,28.7,0,0,0-6.46-.86A27.5,27.5,0,0,0,1108.43,294.91ZM62.76,460.37a32.88,32.88,0,0,0-6.45,2.39,28.81,28.81,0,0,0-6.77,4.88,28.05,28.05,0,0,0-4.47,6.27,77,77,0,0,0-3.65,12.37c-1.13,5-3,14.57-4.11,21.21s-2.21,13.9-2.39,16.16a26.66,26.66,0,0,0,.31,7.67,32.54,32.54,0,0,0,2.21,6.45,37.69,37.69,0,0,0,3,5,27.41,27.41,0,0,0,5.05,4.51A26.31,26.31,0,0,0,53.15,551a21.77,21.77,0,0,0,9,1,31.25,31.25,0,0,0,7.94-1.58A31.3,31.3,0,0,0,76.26,547a31.51,31.51,0,0,0,4.92-5,27.63,27.63,0,0,0,3.38-5.87A90.4,90.4,0,0,0,87,524.32c.72-4.82,2-12.63,2.93-17.33s2.26-11.19,3-14.44a21.72,21.72,0,0,0,.63-10,32.35,32.35,0,0,0-2.44-7.81,30.51,30.51,0,0,0-4.51-6.68,24.76,24.76,0,0,0-6.91-5,39.21,39.21,0,0,0-7.49-2.71,29,29,0,0,0-5-.5A43.17,43.17,0,0,0,62.76,460.37Zm-5.28,163.7a30.68,30.68,0,0,0-6.86,3.52,33.2,33.2,0,0,0-4.74,4.52,36.11,36.11,0,0,0-3.25,5.1,32.24,32.24,0,0,0-2.07,6.58,25.42,25.42,0,0,0-.36,6.91,103.86,103.86,0,0,0,2.16,10.61c1,4,3,11.28,4.52,16.29s3.83,12.32,5.23,16.2S56.22,705,58.25,710s6.18,14.26,9,20.58,8,15.84,11.06,21.17,9,14.89,13.13,21.21,10.52,15.21,14,19.77,9.34,11.73,12.86,15.89,11,12.18,16.47,17.78S148.38,840,152.9,844.06s12,10.42,16.74,14.17,11.87,9,15.89,12.14,10.29,7.31,13.86,9.7,11.5,7.31,17.64,11a86.49,86.49,0,0,0,15.3,7.89,21.26,21.26,0,0,0,9,.91,19.54,19.54,0,0,0,9-2.4,32,32,0,0,0,7.22-5.19,27.71,27.71,0,0,0,4.83-6.68,30.33,30.33,0,0,0,2.3-7.62,27.44,27.44,0,0,0,0-7.68,34.09,34.09,0,0,0-2.53-7.62,23.51,23.51,0,0,0-4.87-6.77,93.78,93.78,0,0,0-11-7.41c-4.52-2.75-13.14-8.08-18.78-11.82s-14-9.75-18.64-13.27-11.69-9.3-15.89-12.86S180.47,798.88,174.56,793,161,779,158,775.32s-8-9.71-10.79-13.27-8.3-11.38-12.32-17.33-8.8-13.55-10.79-17.07-5.78-10.69-8.53-16.2-6.09-12.64-7.49-15.89-3.88-9.52-5.6-14S98.33,669.7,97,665.37,93.5,653.18,92.19,648a62.31,62.31,0,0,0-4-12A31.88,31.88,0,0,0,84.56,631a30.88,30.88,0,0,0-5-4.11A34.88,34.88,0,0,0,73.24,624a30.7,30.7,0,0,0-7.68-1,25.23,25.23,0,0,0-8.08,1.26Z"/><path class="a" d="M795.88,157.06a548.55,548.55,0,0,0-180.66,93.53l-47.63,40.64L522.3,274.44C429.11,238.65,220,270.1,191.81,324.89c-8.42,15.34,3.78,86.13,44,255.56l55.5,233.86L340,800.37c85.56-24.44,225.29-28,284.28-7.5l54.06,19.69,72.87-58.65C826.39,693.84,918.75,649.34,980.39,644c18.12-1.57,33.52-6.55,33.21-10.18C1012.14,616.92,901.27,193,895.07,177.72c-4.46-9.36-10.81-12.46-14.13-8.52s15.71,97.27,43.54,208.11,50.79,207.48,52.84,217.05-10.42,20.38-38,25.2c-67.06,13.09-112.63,35.29-185.6,92.73-38.8,30.14-69.76,52.29-70,49.88s-23.16-99.07-50.31-216-46.89-218.78-44.1-228.76c9.37-32.47,112-98.56,182.09-119.22,44-12.32,68.33-26.6,67.49-36.27C837.45,145,836.14,143.84,795.88,157.06ZM494.28,302.43c26.32,8.68,51.74,21.1,57.31,29.14s17.49,89.82,25.53,182.88S598,700.16,605.84,720.19L620,756.72l-51.7-6.5a743.4,743.4,0,0,0-148.8,5.54,797.2,797.2,0,0,1-100.11,11.08c-.83-9.67-95.24-383.86-101.95-405.19s-.47-28,30.5-41.6C306.65,295.49,443,286.16,494.28,302.43Z"/><path class="a" d="M524.15,565.26,407.39,427.45a16.22,16.22,0,0,0-16.16-5.31,16,16,0,0,0-12,12l-42.17,179.7a16.2,16.2,0,0,0,12,19.46,16.56,16.56,0,0,0,7.51,0,15.91,15.91,0,0,0,12-12l14.53-61.82L461,540.88l38.52,45.39a16.22,16.22,0,0,0,22.79,1.89,16.45,16.45,0,0,0,1.84-23ZM391.28,524l12.07-51.23L437.47,513Z"/><path class="a" d="M837.65,337.24h0a14.3,14.3,0,0,0-9.15,18h0l22.72,69.58L837,429.49l-.4-1.22c-20.23-45.87-78.19-69.17-124.21-50a14.34,14.34,0,0,0,11,26.46h0c31.22-13,71.92,3,86.27,33.79L671.1,483.78a14.23,14.23,0,0,0-8.57,19.33c9.85,22.34,29.25,40.39,53.19,49.71,20.78,7.95,43.14,8.76,62.84,2.33,2.71-.88,5.52-1.95,8.15-3.11,36.71-16.49,58.76-55.7,56.56-94.23l17-5.54,18,55a14.29,14.29,0,1,0,27.16-8.87L855.88,346.79a14.44,14.44,0,0,0-18-9.62ZM775,525.8c-14.41,6.51-32.26,6.62-49.07.24a68.66,68.66,0,0,1-28.84-20.65L814.85,467C813.4,491.46,798.38,515.27,775,525.8Z"/></svg>